<mxfile host="Electron" agent="Mozilla/5.0 (Windows NT 10.0; Win64; x64) AppleWebKit/537.36 (KHTML, like Gecko) draw.io/26.0.16 Chrome/132.0.6834.196 Electron/34.2.0 Safari/537.36" version="26.0.16">
  <diagram id="C5RBs43oDa-KdzZeNtuy" name="Page-1">
    <mxGraphModel dx="3407" dy="1242" grid="1" gridSize="10" guides="1" tooltips="1" connect="1" arrows="1" fold="1" page="1" pageScale="1" pageWidth="827" pageHeight="1169" math="0" shadow="0">
      <root>
        <mxCell id="WIyWlLk6GJQsqaUBKTNV-0" />
        <mxCell id="WIyWlLk6GJQsqaUBKTNV-1" parent="WIyWlLk6GJQsqaUBKTNV-0" />
        <mxCell id="jOTStDrdnAr4XDDwOlqm-7" value="&lt;span style=&quot;font-style: italic; font-weight: 400; text-wrap-mode: nowrap;&quot;&gt;TaskManagement&lt;/span&gt;" style="swimlane;fontStyle=1;align=center;verticalAlign=top;childLayout=stackLayout;horizontal=1;startSize=26;horizontalStack=0;resizeParent=1;resizeParentMax=0;resizeLast=0;collapsible=1;marginBottom=0;whiteSpace=wrap;html=1;" parent="WIyWlLk6GJQsqaUBKTNV-1" vertex="1">
          <mxGeometry x="10" y="290" width="330" height="220" as="geometry" />
        </mxCell>
        <mxCell id="jOTStDrdnAr4XDDwOlqm-8" value="&lt;span style=&quot;text-wrap-mode: nowrap;&quot;&gt;- map: Map&amp;lt;Employee, List&amp;lt;Task&amp;gt;&amp;gt;&lt;/span&gt;" style="text;strokeColor=none;fillColor=none;align=left;verticalAlign=top;spacingLeft=4;spacingRight=4;overflow=hidden;rotatable=0;points=[[0,0.5],[1,0.5]];portConstraint=eastwest;whiteSpace=wrap;html=1;" parent="jOTStDrdnAr4XDDwOlqm-7" vertex="1">
          <mxGeometry y="26" width="330" height="26" as="geometry" />
        </mxCell>
        <mxCell id="jOTStDrdnAr4XDDwOlqm-9" value="" style="line;strokeWidth=1;fillColor=none;align=left;verticalAlign=middle;spacingTop=-1;spacingLeft=3;spacingRight=3;rotatable=0;labelPosition=right;points=[];portConstraint=eastwest;strokeColor=inherit;" parent="jOTStDrdnAr4XDDwOlqm-7" vertex="1">
          <mxGeometry y="52" width="330" height="8" as="geometry" />
        </mxCell>
        <mxCell id="jOTStDrdnAr4XDDwOlqm-10" value="&lt;div&gt;&lt;span style=&quot;text-wrap-mode: nowrap;&quot;&gt;- findMyEmployee(idEmployee: int): Employee&lt;/span&gt;&lt;span style=&quot;text-wrap-mode: nowrap;&quot;&gt;&lt;/span&gt;&lt;/div&gt;&lt;span style=&quot;text-wrap-mode: nowrap;&quot;&gt;+ assignTaskToEmployee(idEmployee: int, task: Task): void&lt;/span&gt;&lt;div&gt;&lt;span style=&quot;text-wrap-mode: nowrap;&quot;&gt;+ calculateEmployeeWorkDuration(idEmployee: int): int&lt;/span&gt;&lt;/div&gt;&lt;div&gt;&lt;span style=&quot;text-wrap-mode: nowrap;&quot;&gt;+ modifyTaskStatus(idEmployee: int, idTask: int): int&lt;/span&gt;&lt;/div&gt;&lt;div&gt;&lt;span style=&quot;text-wrap-mode: nowrap;&quot;&gt;+ addEmployee(newEmployee: Employee): void&lt;/span&gt;&lt;/div&gt;&lt;div&gt;&lt;span style=&quot;text-wrap-mode: nowrap;&quot;&gt;+ showEmployeeForTesting(): void&lt;/span&gt;&lt;/div&gt;&lt;div&gt;&lt;span style=&quot;text-wrap-mode: nowrap;&quot;&gt;+ showEmployeeTasks(): void&lt;/span&gt;&lt;/div&gt;&lt;div&gt;&lt;span style=&quot;text-wrap-mode: nowrap;&quot;&gt;+ saveData(filename: String): void&lt;/span&gt;&lt;/div&gt;&lt;div&gt;&lt;span style=&quot;text-wrap-mode: nowrap;&quot;&gt;+ loadData(filename: String): void&lt;/span&gt;&lt;/div&gt;&lt;div&gt;&lt;span style=&quot;text-wrap-mode: nowrap;&quot;&gt;+ getMap(): Map&amp;lt;Employee, List&amp;lt;Task&amp;gt;&amp;gt;&lt;br&gt;&lt;/span&gt;&lt;div&gt;&lt;br&gt;&lt;/div&gt;&lt;/div&gt;" style="text;strokeColor=none;fillColor=none;align=left;verticalAlign=top;spacingLeft=4;spacingRight=4;overflow=hidden;rotatable=0;points=[[0,0.5],[1,0.5]];portConstraint=eastwest;whiteSpace=wrap;html=1;" parent="jOTStDrdnAr4XDDwOlqm-7" vertex="1">
          <mxGeometry y="60" width="330" height="160" as="geometry" />
        </mxCell>
        <mxCell id="ggE4jpjjUfrEb2Iwbw9e-0" value="Employee" style="swimlane;fontStyle=1;align=center;verticalAlign=top;childLayout=stackLayout;horizontal=1;startSize=26;horizontalStack=0;resizeParent=1;resizeParentMax=0;resizeLast=0;collapsible=1;marginBottom=0;whiteSpace=wrap;html=1;" parent="WIyWlLk6GJQsqaUBKTNV-1" vertex="1">
          <mxGeometry x="60" y="40" width="280" height="150" as="geometry" />
        </mxCell>
        <mxCell id="ggE4jpjjUfrEb2Iwbw9e-1" value="- serialVersionUID: static final long&lt;div&gt;- idEmployee: int&lt;/div&gt;&lt;div&gt;- name: String&lt;/div&gt;" style="text;strokeColor=none;fillColor=none;align=left;verticalAlign=top;spacingLeft=4;spacingRight=4;overflow=hidden;rotatable=0;points=[[0,0.5],[1,0.5]];portConstraint=eastwest;whiteSpace=wrap;html=1;" parent="ggE4jpjjUfrEb2Iwbw9e-0" vertex="1">
          <mxGeometry y="26" width="280" height="54" as="geometry" />
        </mxCell>
        <mxCell id="ggE4jpjjUfrEb2Iwbw9e-2" value="" style="line;strokeWidth=1;fillColor=none;align=left;verticalAlign=middle;spacingTop=-1;spacingLeft=3;spacingRight=3;rotatable=0;labelPosition=right;points=[];portConstraint=eastwest;strokeColor=inherit;" parent="ggE4jpjjUfrEb2Iwbw9e-0" vertex="1">
          <mxGeometry y="80" width="280" height="2" as="geometry" />
        </mxCell>
        <mxCell id="ggE4jpjjUfrEb2Iwbw9e-3" value="+ getIdEmployee(): int&lt;div&gt;+ setIdEmployee(idEmployee: int): void&lt;/div&gt;&lt;div&gt;+ getName(): String&lt;/div&gt;&lt;div&gt;+ setName(name: String): void&lt;/div&gt;" style="text;strokeColor=none;fillColor=none;align=left;verticalAlign=top;spacingLeft=4;spacingRight=4;overflow=hidden;rotatable=0;points=[[0,0.5],[1,0.5]];portConstraint=eastwest;whiteSpace=wrap;html=1;" parent="ggE4jpjjUfrEb2Iwbw9e-0" vertex="1">
          <mxGeometry y="82" width="280" height="68" as="geometry" />
        </mxCell>
        <mxCell id="ggE4jpjjUfrEb2Iwbw9e-4" value="" style="endArrow=diamondThin;endFill=0;endSize=24;html=1;rounded=0;exitX=0.409;exitY=1.061;exitDx=0;exitDy=0;exitPerimeter=0;entryX=0.5;entryY=0;entryDx=0;entryDy=0;" parent="WIyWlLk6GJQsqaUBKTNV-1" source="ggE4jpjjUfrEb2Iwbw9e-3" target="jOTStDrdnAr4XDDwOlqm-7" edge="1">
          <mxGeometry width="160" relative="1" as="geometry">
            <mxPoint x="380" y="160" as="sourcePoint" />
            <mxPoint x="530" y="170" as="targetPoint" />
            <Array as="points" />
          </mxGeometry>
        </mxCell>
        <mxCell id="ggE4jpjjUfrEb2Iwbw9e-6" value="Task" style="swimlane;fontStyle=1;align=center;verticalAlign=top;childLayout=stackLayout;horizontal=1;startSize=26;horizontalStack=0;resizeParent=1;resizeParentMax=0;resizeLast=0;collapsible=1;marginBottom=0;whiteSpace=wrap;html=1;" parent="WIyWlLk6GJQsqaUBKTNV-1" vertex="1">
          <mxGeometry x="450" y="104" width="250" height="170" as="geometry" />
        </mxCell>
        <mxCell id="ggE4jpjjUfrEb2Iwbw9e-7" value="- serialVersionUID: static final long&lt;br&gt;- idTask: int&lt;div&gt;- statusTask: String&lt;/div&gt;" style="text;strokeColor=none;fillColor=none;align=left;verticalAlign=top;spacingLeft=4;spacingRight=4;overflow=hidden;rotatable=0;points=[[0,0.5],[1,0.5]];portConstraint=eastwest;whiteSpace=wrap;html=1;" parent="ggE4jpjjUfrEb2Iwbw9e-6" vertex="1">
          <mxGeometry y="26" width="250" height="54" as="geometry" />
        </mxCell>
        <mxCell id="ggE4jpjjUfrEb2Iwbw9e-8" value="" style="line;strokeWidth=1;fillColor=none;align=left;verticalAlign=middle;spacingTop=-1;spacingLeft=3;spacingRight=3;rotatable=0;labelPosition=right;points=[];portConstraint=eastwest;strokeColor=inherit;" parent="ggE4jpjjUfrEb2Iwbw9e-6" vertex="1">
          <mxGeometry y="80" width="250" height="8" as="geometry" />
        </mxCell>
        <mxCell id="ggE4jpjjUfrEb2Iwbw9e-9" value="+ getIdTask(): int&lt;div&gt;+ setIdTask(idTask: int): void&lt;/div&gt;&lt;div&gt;+ getStatusTask(): String&lt;/div&gt;&lt;div&gt;+ setStatusTask(statusTask: String): void&lt;/div&gt;&lt;div&gt;+ estimatedDuration(): abstract int&lt;/div&gt;" style="text;strokeColor=none;fillColor=none;align=left;verticalAlign=top;spacingLeft=4;spacingRight=4;overflow=hidden;rotatable=0;points=[[0,0.5],[1,0.5]];portConstraint=eastwest;whiteSpace=wrap;html=1;" parent="ggE4jpjjUfrEb2Iwbw9e-6" vertex="1">
          <mxGeometry y="88" width="250" height="82" as="geometry" />
        </mxCell>
        <mxCell id="ggE4jpjjUfrEb2Iwbw9e-10" value="" style="endArrow=diamondThin;endFill=0;endSize=24;html=1;rounded=0;exitX=0.879;exitY=1.058;exitDx=0;exitDy=0;exitPerimeter=0;entryX=0.945;entryY=0.039;entryDx=0;entryDy=0;entryPerimeter=0;" parent="WIyWlLk6GJQsqaUBKTNV-1" source="ggE4jpjjUfrEb2Iwbw9e-9" target="ggE4jpjjUfrEb2Iwbw9e-16" edge="1">
          <mxGeometry width="160" relative="1" as="geometry">
            <mxPoint x="714.1" y="429.9959999999999" as="sourcePoint" />
            <mxPoint x="510" y="524.06" as="targetPoint" />
          </mxGeometry>
        </mxCell>
        <mxCell id="ggE4jpjjUfrEb2Iwbw9e-11" value="SimpleTask" style="swimlane;fontStyle=1;align=center;verticalAlign=top;childLayout=stackLayout;horizontal=1;startSize=26;horizontalStack=0;resizeParent=1;resizeParentMax=0;resizeLast=0;collapsible=1;marginBottom=0;whiteSpace=wrap;html=1;" parent="WIyWlLk6GJQsqaUBKTNV-1" vertex="1">
          <mxGeometry x="380" y="357" width="200" height="114" as="geometry" />
        </mxCell>
        <mxCell id="ggE4jpjjUfrEb2Iwbw9e-12" value="- serialVersionUID: static final long&lt;br&gt;- startHour: int&lt;div&gt;- endHour: int&lt;/div&gt;" style="text;strokeColor=none;fillColor=none;align=left;verticalAlign=top;spacingLeft=4;spacingRight=4;overflow=hidden;rotatable=0;points=[[0,0.5],[1,0.5]];portConstraint=eastwest;whiteSpace=wrap;html=1;" parent="ggE4jpjjUfrEb2Iwbw9e-11" vertex="1">
          <mxGeometry y="26" width="200" height="54" as="geometry" />
        </mxCell>
        <mxCell id="ggE4jpjjUfrEb2Iwbw9e-13" value="" style="line;strokeWidth=1;fillColor=none;align=left;verticalAlign=middle;spacingTop=-1;spacingLeft=3;spacingRight=3;rotatable=0;labelPosition=right;points=[];portConstraint=eastwest;strokeColor=inherit;" parent="ggE4jpjjUfrEb2Iwbw9e-11" vertex="1">
          <mxGeometry y="80" width="200" height="8" as="geometry" />
        </mxCell>
        <mxCell id="ggE4jpjjUfrEb2Iwbw9e-14" value="+ estimatedDuration(): int" style="text;strokeColor=none;fillColor=none;align=left;verticalAlign=top;spacingLeft=4;spacingRight=4;overflow=hidden;rotatable=0;points=[[0,0.5],[1,0.5]];portConstraint=eastwest;whiteSpace=wrap;html=1;" parent="ggE4jpjjUfrEb2Iwbw9e-11" vertex="1">
          <mxGeometry y="88" width="200" height="26" as="geometry" />
        </mxCell>
        <mxCell id="ggE4jpjjUfrEb2Iwbw9e-16" value="ComplexTask" style="swimlane;fontStyle=1;align=center;verticalAlign=top;childLayout=stackLayout;horizontal=1;startSize=26;horizontalStack=0;resizeParent=1;resizeParentMax=0;resizeLast=0;collapsible=1;marginBottom=0;whiteSpace=wrap;html=1;" parent="WIyWlLk6GJQsqaUBKTNV-1" vertex="1">
          <mxGeometry x="460" y="542" width="220" height="104" as="geometry" />
        </mxCell>
        <mxCell id="ggE4jpjjUfrEb2Iwbw9e-17" value="- serialVersionUID: static final long&lt;div&gt;- tasks: List&amp;lt;Task&amp;gt;&lt;/div&gt;" style="text;strokeColor=none;fillColor=none;align=left;verticalAlign=top;spacingLeft=4;spacingRight=4;overflow=hidden;rotatable=0;points=[[0,0.5],[1,0.5]];portConstraint=eastwest;whiteSpace=wrap;html=1;" parent="ggE4jpjjUfrEb2Iwbw9e-16" vertex="1">
          <mxGeometry y="26" width="220" height="44" as="geometry" />
        </mxCell>
        <mxCell id="ggE4jpjjUfrEb2Iwbw9e-18" value="" style="line;strokeWidth=1;fillColor=none;align=left;verticalAlign=middle;spacingTop=-1;spacingLeft=3;spacingRight=3;rotatable=0;labelPosition=right;points=[];portConstraint=eastwest;strokeColor=inherit;" parent="ggE4jpjjUfrEb2Iwbw9e-16" vertex="1">
          <mxGeometry y="70" width="220" height="8" as="geometry" />
        </mxCell>
        <mxCell id="ggE4jpjjUfrEb2Iwbw9e-19" value="+ estimatedDuration(): int" style="text;strokeColor=none;fillColor=none;align=left;verticalAlign=top;spacingLeft=4;spacingRight=4;overflow=hidden;rotatable=0;points=[[0,0.5],[1,0.5]];portConstraint=eastwest;whiteSpace=wrap;html=1;" parent="ggE4jpjjUfrEb2Iwbw9e-16" vertex="1">
          <mxGeometry y="78" width="220" height="26" as="geometry" />
        </mxCell>
        <mxCell id="ggE4jpjjUfrEb2Iwbw9e-20" value="" style="endArrow=diamondThin;endFill=0;endSize=24;html=1;rounded=0;exitX=-0.013;exitY=0.048;exitDx=0;exitDy=0;exitPerimeter=0;" parent="WIyWlLk6GJQsqaUBKTNV-1" edge="1">
          <mxGeometry width="160" relative="1" as="geometry">
            <mxPoint x="457" y="206" as="sourcePoint" />
            <mxPoint x="250" y="290" as="targetPoint" />
            <Array as="points">
              <mxPoint x="340" y="240" />
              <mxPoint x="250" y="240" />
            </Array>
          </mxGeometry>
        </mxCell>
        <mxCell id="ggE4jpjjUfrEb2Iwbw9e-21" value="Extends" style="endArrow=block;endSize=16;endFill=0;html=1;rounded=0;entryX=0.379;entryY=1.047;entryDx=0;entryDy=0;entryPerimeter=0;" parent="WIyWlLk6GJQsqaUBKTNV-1" source="ggE4jpjjUfrEb2Iwbw9e-11" target="ggE4jpjjUfrEb2Iwbw9e-9" edge="1">
          <mxGeometry width="160" relative="1" as="geometry">
            <mxPoint x="280" y="585" as="sourcePoint" />
            <mxPoint x="440" y="585" as="targetPoint" />
          </mxGeometry>
        </mxCell>
        <mxCell id="ggE4jpjjUfrEb2Iwbw9e-22" value="Extends" style="endArrow=block;endSize=16;endFill=0;html=1;rounded=0;entryX=0.612;entryY=1.035;entryDx=0;entryDy=0;entryPerimeter=0;exitX=0.68;exitY=0.039;exitDx=0;exitDy=0;exitPerimeter=0;" parent="WIyWlLk6GJQsqaUBKTNV-1" source="ggE4jpjjUfrEb2Iwbw9e-16" target="ggE4jpjjUfrEb2Iwbw9e-9" edge="1">
          <mxGeometry width="160" relative="1" as="geometry">
            <mxPoint x="580" y="389" as="sourcePoint" />
            <mxPoint x="618" y="310" as="targetPoint" />
          </mxGeometry>
        </mxCell>
        <mxCell id="ggE4jpjjUfrEb2Iwbw9e-23" value="Utility" style="swimlane;fontStyle=1;align=center;verticalAlign=top;childLayout=stackLayout;horizontal=1;startSize=26;horizontalStack=0;resizeParent=1;resizeParentMax=0;resizeLast=0;collapsible=1;marginBottom=0;whiteSpace=wrap;html=1;" parent="WIyWlLk6GJQsqaUBKTNV-1" vertex="1">
          <mxGeometry x="40" y="690" width="520" height="100" as="geometry" />
        </mxCell>
        <mxCell id="ggE4jpjjUfrEb2Iwbw9e-24" value="+ myTaskManagement: TaskManagement" style="text;strokeColor=none;fillColor=none;align=left;verticalAlign=top;spacingLeft=4;spacingRight=4;overflow=hidden;rotatable=0;points=[[0,0.5],[1,0.5]];portConstraint=eastwest;whiteSpace=wrap;html=1;" parent="ggE4jpjjUfrEb2Iwbw9e-23" vertex="1">
          <mxGeometry y="26" width="520" height="24" as="geometry" />
        </mxCell>
        <mxCell id="ggE4jpjjUfrEb2Iwbw9e-25" value="" style="line;strokeWidth=1;fillColor=none;align=left;verticalAlign=middle;spacingTop=-1;spacingLeft=3;spacingRight=3;rotatable=0;labelPosition=right;points=[];portConstraint=eastwest;strokeColor=inherit;" parent="ggE4jpjjUfrEb2Iwbw9e-23" vertex="1">
          <mxGeometry y="50" width="520" height="8" as="geometry" />
        </mxCell>
        <mxCell id="ggE4jpjjUfrEb2Iwbw9e-26" value="+ filterEmployees(map: Map&amp;lt;Employee, List&amp;lt;Task&amp;gt;&amp;gt;: String&lt;div&gt;+ calculateNrOfTask(map Map&amp;lt;Employee, List&amp;lt;Task&amp;gt;&amp;gt;: Map&amp;lt;Employee, Map&amp;lt;String, Integer&amp;gt;&amp;gt;&lt;/div&gt;" style="text;strokeColor=none;fillColor=none;align=left;verticalAlign=top;spacingLeft=4;spacingRight=4;overflow=hidden;rotatable=0;points=[[0,0.5],[1,0.5]];portConstraint=eastwest;whiteSpace=wrap;html=1;" parent="ggE4jpjjUfrEb2Iwbw9e-23" vertex="1">
          <mxGeometry y="58" width="520" height="42" as="geometry" />
        </mxCell>
        <mxCell id="ggE4jpjjUfrEb2Iwbw9e-27" value="GUI2" style="swimlane;fontStyle=1;align=center;verticalAlign=top;childLayout=stackLayout;horizontal=1;startSize=26;horizontalStack=0;resizeParent=1;resizeParentMax=0;resizeLast=0;collapsible=1;marginBottom=0;whiteSpace=wrap;html=1;" parent="WIyWlLk6GJQsqaUBKTNV-1" vertex="1">
          <mxGeometry x="100" y="920" width="340" height="190" as="geometry" />
        </mxCell>
        <mxCell id="ggE4jpjjUfrEb2Iwbw9e-28" value="- map: Map&amp;lt;Employee, List&amp;lt;Task&amp;gt;&amp;gt;&lt;div&gt;- taskLink: ArrayList&amp;lt;Task&amp;gt;&lt;/div&gt;&lt;div&gt;- manager: TaskManagement&lt;/div&gt;&lt;div&gt;- util: Utility&lt;/div&gt;" style="text;strokeColor=none;fillColor=none;align=left;verticalAlign=top;spacingLeft=4;spacingRight=4;overflow=hidden;rotatable=0;points=[[0,0.5],[1,0.5]];portConstraint=eastwest;whiteSpace=wrap;html=1;" parent="ggE4jpjjUfrEb2Iwbw9e-27" vertex="1">
          <mxGeometry y="26" width="340" height="64" as="geometry" />
        </mxCell>
        <mxCell id="ggE4jpjjUfrEb2Iwbw9e-29" value="" style="line;strokeWidth=1;fillColor=none;align=left;verticalAlign=middle;spacingTop=-1;spacingLeft=3;spacingRight=3;rotatable=0;labelPosition=right;points=[];portConstraint=eastwest;strokeColor=inherit;" parent="ggE4jpjjUfrEb2Iwbw9e-27" vertex="1">
          <mxGeometry y="90" width="340" height="8" as="geometry" />
        </mxCell>
        <mxCell id="ggE4jpjjUfrEb2Iwbw9e-30" value="+ main(argv: String[]): static void&lt;div&gt;- buttonStyle(button: JButton): static JButton&lt;/div&gt;&lt;div&gt;- createGUI(): void&lt;/div&gt;&lt;div&gt;- saveDataList(data: ArrayList&amp;lt;Task&amp;gt;, filename: String): void&lt;/div&gt;&lt;div&gt;- loadDataList(filename: String): ArrayList&amp;lt;Task&amp;gt;&lt;/div&gt;&lt;div&gt;- showTaskListForTesting(): void&lt;/div&gt;&lt;div&gt;&lt;br&gt;&lt;/div&gt;" style="text;strokeColor=none;fillColor=none;align=left;verticalAlign=top;spacingLeft=4;spacingRight=4;overflow=hidden;rotatable=0;points=[[0,0.5],[1,0.5]];portConstraint=eastwest;whiteSpace=wrap;html=1;" parent="ggE4jpjjUfrEb2Iwbw9e-27" vertex="1">
          <mxGeometry y="98" width="340" height="92" as="geometry" />
        </mxCell>
        <mxCell id="ggE4jpjjUfrEb2Iwbw9e-31" value="" style="endArrow=diamondThin;endFill=0;endSize=24;html=1;rounded=0;entryX=0.438;entryY=0.021;entryDx=0;entryDy=0;exitX=0.207;exitY=0.981;exitDx=0;exitDy=0;exitPerimeter=0;entryPerimeter=0;" parent="WIyWlLk6GJQsqaUBKTNV-1" source="jOTStDrdnAr4XDDwOlqm-10" target="ggE4jpjjUfrEb2Iwbw9e-27" edge="1">
          <mxGeometry width="160" relative="1" as="geometry">
            <mxPoint x="180" y="690" as="sourcePoint" />
            <mxPoint x="340" y="690" as="targetPoint" />
            <Array as="points">
              <mxPoint x="30" y="600" />
              <mxPoint x="30" y="860" />
              <mxPoint x="250" y="860" />
            </Array>
          </mxGeometry>
        </mxCell>
        <mxCell id="ggE4jpjjUfrEb2Iwbw9e-32" value="" style="endArrow=diamondThin;endFill=0;endSize=24;html=1;rounded=0;exitX=0.455;exitY=1.043;exitDx=0;exitDy=0;exitPerimeter=0;" parent="WIyWlLk6GJQsqaUBKTNV-1" source="ggE4jpjjUfrEb2Iwbw9e-26" edge="1">
          <mxGeometry width="160" relative="1" as="geometry">
            <mxPoint x="88" y="517" as="sourcePoint" />
            <mxPoint x="280" y="920" as="targetPoint" />
            <Array as="points">
              <mxPoint x="277" y="830" />
            </Array>
          </mxGeometry>
        </mxCell>
        <mxCell id="ggE4jpjjUfrEb2Iwbw9e-37" value="&lt;span style=&quot;font-weight: 400;&quot;&gt;Serializer&lt;/span&gt;" style="swimlane;fontStyle=1;align=center;verticalAlign=top;childLayout=stackLayout;horizontal=1;startSize=26;horizontalStack=0;resizeParent=1;resizeParentMax=0;resizeLast=0;collapsible=1;marginBottom=0;whiteSpace=wrap;html=1;" parent="WIyWlLk6GJQsqaUBKTNV-1" vertex="1">
          <mxGeometry x="-435" y="70" width="290" height="120" as="geometry" />
        </mxCell>
        <mxCell id="ggE4jpjjUfrEb2Iwbw9e-39" value="" style="line;strokeWidth=1;fillColor=none;align=left;verticalAlign=middle;spacingTop=-1;spacingLeft=3;spacingRight=3;rotatable=0;labelPosition=right;points=[];portConstraint=eastwest;strokeColor=inherit;" parent="ggE4jpjjUfrEb2Iwbw9e-37" vertex="1">
          <mxGeometry y="26" width="290" height="8" as="geometry" />
        </mxCell>
        <mxCell id="ggE4jpjjUfrEb2Iwbw9e-40" value="+ saveDate(data: Map&amp;lt;Employee, List&amp;lt;Task&amp;gt;&amp;gt;,&amp;nbsp;&lt;span style=&quot;background-color: transparent; color: light-dark(rgb(0, 0, 0), rgb(255, 255, 255));&quot;&gt;filename: String): static void&lt;/span&gt;&lt;div&gt;+ saveDataList(data: ArrayList&amp;lt;Task&amp;gt;, filename: String): static void&lt;/div&gt;" style="text;strokeColor=none;fillColor=none;align=left;verticalAlign=top;spacingLeft=4;spacingRight=4;overflow=hidden;rotatable=0;points=[[0,0.5],[1,0.5]];portConstraint=eastwest;whiteSpace=wrap;html=1;" parent="ggE4jpjjUfrEb2Iwbw9e-37" vertex="1">
          <mxGeometry y="34" width="290" height="86" as="geometry" />
        </mxCell>
        <mxCell id="ggE4jpjjUfrEb2Iwbw9e-41" value="Deserializer" style="swimlane;fontStyle=1;align=center;verticalAlign=top;childLayout=stackLayout;horizontal=1;startSize=26;horizontalStack=0;resizeParent=1;resizeParentMax=0;resizeLast=0;collapsible=1;marginBottom=0;whiteSpace=wrap;html=1;" parent="WIyWlLk6GJQsqaUBKTNV-1" vertex="1">
          <mxGeometry x="-435" y="230" width="290" height="110" as="geometry" />
        </mxCell>
        <mxCell id="ggE4jpjjUfrEb2Iwbw9e-43" value="" style="line;strokeWidth=1;fillColor=none;align=left;verticalAlign=middle;spacingTop=-1;spacingLeft=3;spacingRight=3;rotatable=0;labelPosition=right;points=[];portConstraint=eastwest;strokeColor=inherit;" parent="ggE4jpjjUfrEb2Iwbw9e-41" vertex="1">
          <mxGeometry y="26" width="290" height="8" as="geometry" />
        </mxCell>
        <mxCell id="ggE4jpjjUfrEb2Iwbw9e-44" value="+ loadDate(filename: String): static Map&amp;lt;Employee, List&amp;lt;Task&amp;gt;&amp;gt;&lt;div&gt;&lt;div&gt;+ loadDateList(filename: String): static ArrayList&amp;lt;Task&amp;gt;&lt;/div&gt;&lt;/div&gt;" style="text;strokeColor=none;fillColor=none;align=left;verticalAlign=top;spacingLeft=4;spacingRight=4;overflow=hidden;rotatable=0;points=[[0,0.5],[1,0.5]];portConstraint=eastwest;whiteSpace=wrap;html=1;" parent="ggE4jpjjUfrEb2Iwbw9e-41" vertex="1">
          <mxGeometry y="34" width="290" height="76" as="geometry" />
        </mxCell>
        <mxCell id="AYocPArRzy9jNRolPfE6-0" value="" style="endArrow=diamondThin;endFill=0;endSize=24;html=1;rounded=0;exitX=1;exitY=0.5;exitDx=0;exitDy=0;entryX=0.338;entryY=-0.005;entryDx=0;entryDy=0;entryPerimeter=0;" edge="1" parent="WIyWlLk6GJQsqaUBKTNV-1" source="ggE4jpjjUfrEb2Iwbw9e-40" target="jOTStDrdnAr4XDDwOlqm-7">
          <mxGeometry width="160" relative="1" as="geometry">
            <mxPoint x="-90" y="141" as="sourcePoint" />
            <mxPoint x="-90" y="237" as="targetPoint" />
            <Array as="points">
              <mxPoint x="122" y="230" />
            </Array>
          </mxGeometry>
        </mxCell>
        <mxCell id="AYocPArRzy9jNRolPfE6-1" value="" style="endArrow=diamondThin;endFill=0;endSize=24;html=1;rounded=0;exitX=1.006;exitY=0.305;exitDx=0;exitDy=0;exitPerimeter=0;" edge="1" parent="WIyWlLk6GJQsqaUBKTNV-1">
          <mxGeometry width="160" relative="1" as="geometry">
            <mxPoint x="-145" y="287.17999999999995" as="sourcePoint" />
            <mxPoint x="48" y="290" as="targetPoint" />
            <Array as="points">
              <mxPoint x="-81.74" y="230" />
              <mxPoint x="48.26" y="230" />
            </Array>
          </mxGeometry>
        </mxCell>
        <mxCell id="AYocPArRzy9jNRolPfE6-2" value="" style="endArrow=diamondThin;endFill=0;endSize=24;html=1;rounded=0;exitX=1.003;exitY=0.763;exitDx=0;exitDy=0;exitPerimeter=0;entryX=0.25;entryY=0;entryDx=0;entryDy=0;" edge="1" parent="WIyWlLk6GJQsqaUBKTNV-1" source="ggE4jpjjUfrEb2Iwbw9e-40" target="ggE4jpjjUfrEb2Iwbw9e-27">
          <mxGeometry width="160" relative="1" as="geometry">
            <mxPoint x="205" y="224" as="sourcePoint" />
            <mxPoint x="-80" y="900" as="targetPoint" />
            <Array as="points">
              <mxPoint x="-80" y="190" />
              <mxPoint x="-80" y="880" />
              <mxPoint x="185" y="880" />
            </Array>
          </mxGeometry>
        </mxCell>
        <mxCell id="AYocPArRzy9jNRolPfE6-3" value="" style="endArrow=diamondThin;endFill=0;endSize=24;html=1;rounded=0;exitX=1;exitY=0.5;exitDx=0;exitDy=0;entryX=0.091;entryY=0.021;entryDx=0;entryDy=0;entryPerimeter=0;" edge="1" parent="WIyWlLk6GJQsqaUBKTNV-1" source="ggE4jpjjUfrEb2Iwbw9e-44" target="ggE4jpjjUfrEb2Iwbw9e-27">
          <mxGeometry width="160" relative="1" as="geometry">
            <mxPoint x="215" y="234" as="sourcePoint" />
            <mxPoint x="215" y="330" as="targetPoint" />
            <Array as="points">
              <mxPoint x="-120" y="300" />
              <mxPoint x="-110" y="770" />
              <mxPoint x="-110" y="890" />
              <mxPoint x="130" y="890" />
            </Array>
          </mxGeometry>
        </mxCell>
      </root>
    </mxGraphModel>
  </diagram>
</mxfile>
